<svg xmlns="http://www.w3.org/2000/svg" width="227" height="175" fill="none" viewBox="0 0 227 175"><path fill="#5FBF9D" fill-opacity=".5" d="M5.96159 131.926C4.01945 131.403 2.35211 130.209 1 128.249C2.23144 129.624 3.87914 130.884 5.96159 131.926C39.2109 140.874 153.003 -47.1424 144.5 31.7494C142.891 46.6782 144.622 56.5724 148.374 62.7781C152.008 59.5689 155.717 56.2276 159.5 52.7494C283.5 -61.2506 169 49.2494 200 45.2494C225.458 41.9645 165.605 91.2821 148.374 62.7781C66.9119 134.706 22.5848 140.247 5.96159 131.926Z"/><path stroke="#56AD8F" d="M1 128.249C25.5 163.749 153.5 -51.7506 144.5 31.7494C135.5 115.249 231 41.2494 200 45.2494C169 49.2494 283.5 -61.2506 159.5 52.7494C60.3 143.949 12.5 141.083 1 128.249Z"/><path fill="#5FBF9D" fill-opacity=".5" d="M226.5 92C201.847 67.0689 95.5462 219.046 104.603 160.405C106.989 144.952 101.838 137.025 93.53 133.73C62.1251 156.739 68.5096 151.5 45.5 151.5C22.4336 151.5 70.3114 124.524 93.53 133.73C103.071 126.74 116.1 117.143 134.5 104C190.5 64 219.5 84.9211 226.5 92Z"/><path stroke="#56AD8F" d="M226.5 92C201.847 67.0689 95.5462 219.046 104.603 160.405C113.659 101.764 14.1799 151.5 45.5 151.5C75.5 151.5 55.5329 160.405 134.5 104C190.5 64 219.5 84.9211 226.5 92Z"/></svg>